<svg width="294" height="144" viewBox="0 0 294 144" fill="none" xmlns="http://www.w3.org/2000/svg">
<path d="M46.2586 49.8649V29.7161C46.2586 23.8543 44.3727 21.6981 40.5292 21.6981C36.2781 21.6981 34.3283 24.2616 34.3283 29.181V49.8649H23.1333V29.2449C23.1333 24.3894 21.3833 21.6981 17.5397 21.6981C13.1608 21.6981 11.2031 24.5251 11.2031 29.7161V49.8649H0V12.4662H10.4519V16.4433H10.5878C12.5455 12.9374 16.1174 11.1884 20.9039 11.1884C25.6903 11.1884 29.3341 13.6162 31.6914 17.8568C34.3923 13.6082 38.4356 11.1884 43.5577 11.1884C51.916 11.1884 57.4456 16.3075 57.4456 26.7532V49.8649H46.2506H46.2586Z" fill="#212121"/>
<path d="M93.452 49.8649V45.8239H93.3162C91.6941 49.1222 87.2512 51.1506 82.3289 51.1506C71.2697 51.1506 63.5826 42.4618 63.5826 31.1376C63.5826 19.8134 71.6053 11.1884 82.3289 11.1884C86.9156 11.1884 91.1587 13.0093 93.3162 16.4433H93.452V12.4662H104.647V49.8649H93.452ZM93.452 31.1296C93.452 25.8748 89.201 21.6262 83.943 21.6262C78.6851 21.6262 74.7696 25.8748 74.7696 31.2654C74.7696 36.6559 78.8849 40.6969 84.0709 40.6969C89.2569 40.6969 93.4441 36.5202 93.4441 31.1296H93.452Z" fill="#212121"/>
<path d="M115.363 49.8649V20.9554H109.833V12.4662H115.363V0H126.558V12.4662H131.952V20.9554H126.558V49.8649H115.363Z" fill="#212121"/>
<path d="M160.263 49.8649V29.3088C160.263 24.4533 158.377 21.6901 154.262 21.6901C150.147 21.6901 147.989 24.1817 147.989 28.8296V49.8569H136.794V0H147.989V16.036C149.611 13.0013 153.247 11.1805 157.698 11.1805C166.264 11.1805 171.45 16.571 171.45 26.346V49.8649H160.255H160.263Z" fill="#212121"/>
<path d="M188.446 34.5716C189.054 38.8202 192.625 41.6472 197.212 41.6472C200.249 41.6472 202.198 40.5052 204.02 38.1413H215.479C211.907 46.2951 205.091 51.0787 197.204 51.0787C186.417 51.0787 177.379 42.3819 177.379 31.2654C177.379 20.1488 186.009 11.1805 196.996 11.1805C207.984 11.1805 216.75 20.005 216.75 31.6008C216.75 32.6789 216.686 33.5574 216.478 34.5636H188.43L188.446 34.5716ZM205.571 27.0248C204.692 23.1835 201.319 20.62 197.004 20.62C192.961 20.62 189.453 23.0477 188.574 27.0248H205.563H205.571Z" fill="#212121"/>
<path d="M247.043 49.8649V45.8878H246.907C245.285 49.3218 242.32 51.0787 237.262 51.0787C229.375 51.0787 222.831 46.359 222.831 35.7136V12.4662H234.026V33.4216C234.026 38.341 235.776 40.633 240.027 40.633C244.278 40.633 246.435 37.8059 246.435 33.2219V12.4662H257.63V49.8649H247.043Z" fill="#212121"/>
<path d="M281.627 22.9758C281.563 20.8196 280.013 20.1488 278.191 20.1488C276.369 20.1488 274.954 21.2269 274.954 22.6404C274.954 24.6609 276.776 25.6751 281.97 27.0168C290.872 29.3727 293.773 32.9504 293.773 38.4049C293.773 46.2232 287.028 51.1426 278.534 51.1426C270.04 51.1426 264.103 46.359 263.296 38.7403H274.419C274.755 41.0962 276.441 42.1743 278.67 42.1743C280.628 42.1743 282.578 41.0323 282.578 39.2754C282.578 37.183 281.299 36.1049 275.698 34.356C266.26 31.457 263.759 27.7515 263.759 23.3751C263.759 15.9641 270.703 11.1805 278.255 11.1805C286.349 11.1805 292.079 15.6287 292.614 22.9758H281.627Z" fill="#212121"/>
<path d="M0 143.19V93.3249H10.5159V97.4378H10.7156C13.6802 93.7322 17.7954 92.0472 22.4461 92.0472C33.0978 92.0472 40.649 100.736 40.649 112.396C40.649 123.041 33.1617 132.001 22.4461 132.001C18.0591 132.001 14.2236 130.652 11.1871 127.353V143.19H0ZM29.47 112.06C29.47 106.805 25.4266 102.493 20.0329 102.493C14.6391 102.493 10.7316 106.67 10.7316 112.06C10.7316 117.451 14.7749 121.564 20.1048 121.564C25.4346 121.564 29.4779 117.251 29.4779 112.06H29.47Z" fill="#212121"/>
<path d="M56.0313 115.43C56.6386 119.679 60.2104 122.506 64.7971 122.506C67.8336 122.506 69.7834 121.364 71.6053 119H83.064C79.4922 127.154 72.6761 131.937 64.7892 131.937C54.0016 131.937 44.9641 123.241 44.9641 112.124C44.9641 101.008 53.5941 92.0392 64.5814 92.0392C75.5687 92.0392 84.3346 100.864 84.3346 112.46C84.3346 113.538 84.2707 114.416 84.0629 115.422H56.0153L56.0313 115.43ZM73.1555 107.883C72.2765 104.042 68.9044 101.479 64.5894 101.479C60.5461 101.479 57.0381 103.906 56.1591 107.883H73.1475H73.1555Z" fill="#212121"/>
<path d="M90.4795 130.724V93.3249H100.995V97.302H101.131C103.089 93.3249 106.189 92.0472 110.504 92.0472V103.3C103.832 103.363 101.675 105.863 101.675 110.104V130.724H90.4795Z" fill="#212121"/>
<path d="M123.521 115.43C124.129 119.679 127.7 122.506 132.287 122.506C135.324 122.506 137.273 121.364 139.095 119H150.554C146.982 127.154 140.166 131.937 132.279 131.937C121.492 131.937 112.454 123.241 112.454 112.124C112.454 101.008 121.084 92.0392 132.071 92.0392C143.059 92.0392 151.825 100.864 151.825 112.46C151.825 113.538 151.761 114.416 151.553 115.422H123.505L123.521 115.43ZM140.646 107.883C139.767 104.042 136.394 101.479 132.079 101.479C128.036 101.479 124.528 103.906 123.649 107.883H140.638H140.646Z" fill="#212121"/>
<path d="M158.041 89.3479V80.8587H169.237V89.3479H158.041ZM158.041 130.724V93.3249H169.237V130.724H158.041Z" fill="#212121"/>
<path d="M177.259 130.724V93.3249H187.775V97.302H187.911C189.869 93.3249 192.969 92.0472 197.284 92.0472V103.3C190.612 103.363 188.454 105.863 188.454 110.104V130.724H177.259Z" fill="#212121"/>
<path d="M229.375 130.724V126.683H229.239C227.617 129.981 223.174 132.009 218.252 132.009C207.193 132.009 199.506 123.321 199.506 111.996C199.506 100.672 207.528 92.0472 218.252 92.0472C222.839 92.0472 227.082 93.868 229.239 97.302H229.375V93.3249H240.57V130.724H229.375ZM229.375 111.988C229.375 106.734 225.124 102.485 219.866 102.485C214.608 102.485 210.693 106.734 210.693 112.124C210.693 117.515 214.808 121.556 219.994 121.556C225.18 121.556 229.367 117.379 229.367 111.988H229.375Z" fill="#212121"/>
</svg>
