<svg width="472" height="230" viewBox="0 0 472 230" fill="none" xmlns="http://www.w3.org/2000/svg">
<g clip-path="url(#clip0_2_13)">
<path d="M74.3144 80.0909V47.734C74.3144 38.3186 71.2828 34.857 65.1073 34.857C58.2822 34.857 55.1383 38.9677 55.1383 46.8686V80.0989H37.1572V46.9728C37.1572 39.176 34.3421 34.849 28.1667 34.849C21.125 34.849 17.9811 39.3924 17.9811 47.726V80.0909H0V20.0247H16.7941V26.4112H17.0107C20.1546 20.786 25.897 17.9654 33.5883 17.9654C41.2795 17.9654 47.1262 21.8597 50.9197 28.6789C55.2506 21.8597 61.7549 17.9654 69.9836 17.9654C83.4172 17.9654 92.3035 26.1948 92.3035 42.9662V80.0909H74.3224H74.3144Z" fill="white"/>
<path d="M150.145 80.0909V73.6003H149.928C147.33 78.905 140.176 82.1503 132.268 82.1503C114.503 82.1503 102.152 68.1915 102.152 50.0017C102.152 31.812 115.041 17.9654 132.268 17.9654C139.63 17.9654 146.455 20.8901 149.928 26.4112H150.145V20.0247H168.126V80.0909H150.145ZM150.145 50.0017C150.145 41.5559 143.319 34.7448 134.874 34.7448C126.429 34.7448 120.141 41.5639 120.141 50.2261C120.141 58.8883 126.75 65.3789 135.091 65.3789C143.432 65.3789 150.153 58.6719 150.153 50.0097L150.145 50.0017Z" fill="white"/>
<path d="M185.353 80.0909V33.663H176.467V20.0247H185.353V0H203.334V20.0247H212.004V33.663H203.334V80.0989H185.353V80.0909Z" fill="white"/>
<path d="M257.502 80.0909V47.085C257.502 39.2882 254.47 34.857 247.862 34.857C241.253 34.857 237.788 38.8635 237.788 46.3317V80.0989H219.807V0H237.788V25.7621C240.387 20.8902 246.242 17.9654 253.388 17.9654C267.142 17.9654 275.483 26.6275 275.483 42.3172V80.0909H257.502Z" fill="white"/>
<path d="M302.792 55.5228C303.762 62.3419 309.504 66.8853 316.875 66.8853C321.751 66.8853 324.895 65.0423 327.814 61.2601H346.228C340.486 74.3535 329.547 82.0381 316.875 82.0381C299.543 82.0381 285.027 68.0793 285.027 50.2181C285.027 32.3569 298.894 17.9654 316.554 17.9654C334.214 17.9654 348.298 32.1405 348.298 50.763C348.298 52.4938 348.185 53.9041 347.865 55.5228H302.8H302.792ZM330.309 43.3989C328.897 37.2289 323.483 33.1181 316.554 33.1181C310.05 33.1181 304.42 37.0125 303.016 43.3989H330.317H330.309Z" fill="white"/>
<path d="M396.932 80.0909V73.7045H396.715C394.117 79.2255 389.353 82.0381 381.228 82.0381C368.557 82.0381 358.042 74.4658 358.042 57.3578V20.0247H376.023V53.6878C376.023 61.5887 378.838 65.2667 385.663 65.2667C392.489 65.2667 395.953 60.7233 395.953 53.3592V20.0247H413.934V80.0909H396.924H396.932Z" fill="white"/>
<path d="M452.503 36.9083C452.391 33.4467 449.905 32.3649 446.977 32.3649C444.05 32.3649 441.78 34.0957 441.78 36.3715C441.78 39.6168 444.708 41.2434 453.048 43.407C467.348 47.1972 472.008 52.9345 472.008 61.7009C472.008 74.2574 461.173 82.1583 447.523 82.1583C433.872 82.1583 424.336 74.4738 423.037 62.2458H440.914C441.459 66.036 444.162 67.7668 447.739 67.7668C450.883 67.7668 454.019 65.9238 454.019 63.1112C454.019 59.7537 451.958 58.0229 442.967 55.2103C427.801 50.5547 423.791 44.6009 423.791 37.5654C423.791 25.658 434.947 17.9734 447.082 17.9734C460.082 17.9734 469.289 25.1131 470.155 36.9164H452.495L452.503 36.9083Z" fill="white"/>
<path d="M0 199V118.909H16.8984V125.512H17.2192C21.9831 119.558 28.5917 116.85 36.0665 116.85C53.1814 116.85 65.3158 130.809 65.3158 149.535C65.3158 166.635 53.2937 181.035 36.0665 181.035C29.0248 181.035 22.8493 178.871 17.9731 173.566V199H0ZM47.3428 148.998C47.3428 140.552 40.8384 133.629 32.1767 133.629C23.515 133.629 17.2272 140.336 17.2272 148.998C17.2272 157.66 23.7235 164.255 32.289 164.255C40.8545 164.255 47.3508 157.332 47.3508 148.998H47.3428Z" fill="white"/>
<path d="M90.0258 154.407C91.0043 161.226 96.7467 165.77 104.109 165.77C108.985 165.77 112.129 163.927 115.049 160.144H133.463C127.72 173.238 116.781 180.922 104.109 180.922C86.7777 180.922 72.2613 166.964 72.2613 149.102C72.2613 131.241 86.128 116.85 103.788 116.85C121.449 116.85 135.532 131.025 135.532 149.647C135.532 151.378 135.42 152.788 135.099 154.407H90.0338H90.0258ZM117.543 142.283C116.131 136.113 110.718 132.002 103.788 132.002C97.2921 132.002 91.6539 135.897 90.2504 142.283H117.551H117.543Z" fill="white"/>
<path d="M145.381 178.975V118.909H162.279V125.296H162.496C165.639 118.909 170.62 116.85 177.549 116.85V134.927C166.826 135.031 163.362 139.038 163.362 145.857V178.975H145.381Z" fill="white"/>
<path d="M198.466 154.407C199.444 161.226 205.187 165.77 212.549 165.77C217.425 165.77 220.569 163.927 223.489 160.144H241.903C236.16 173.238 225.221 180.922 212.549 180.922C195.218 180.922 180.701 166.964 180.701 149.102C180.701 131.241 194.568 116.85 212.22 116.85C229.873 116.85 243.964 131.025 243.964 149.647C243.964 151.378 243.86 152.788 243.531 154.407H198.466ZM225.983 142.283C224.571 136.113 219.158 132.002 212.228 132.002C205.732 132.002 200.094 135.897 198.69 142.283H225.991H225.983Z" fill="white"/>
<path d="M253.933 112.523V98.8843H271.914V112.523H253.933ZM253.933 178.975V118.909H271.914V178.975H253.933Z" fill="white"/>
<path d="M284.802 178.975V118.909H301.701V125.296H301.917C305.061 118.909 310.042 116.85 316.971 116.85V134.927C306.248 135.031 302.784 139.038 302.784 145.857V178.975H284.802Z" fill="white"/>
<path d="M368.548 178.975V172.485H368.332C365.733 177.789 358.579 181.035 350.672 181.035C332.907 181.035 320.556 167.076 320.556 148.886C320.556 130.696 333.444 116.85 350.672 116.85C358.042 116.85 364.867 119.774 368.332 125.296H368.548V118.909H386.53V178.975H368.548ZM368.548 148.886C368.548 140.44 361.723 133.629 353.278 133.629C344.833 133.629 338.545 140.448 338.545 149.11C338.545 157.773 345.154 164.263 353.495 164.263C361.836 164.263 368.557 157.556 368.557 148.894L368.548 148.886Z" fill="white"/>
</g>
<defs>
<clipPath id="clip0_2_13">
<rect width="472" height="230" fill="white"/>
</clipPath>
</defs>
</svg>
